<mxfile host="app.diagrams.net" modified="2022-08-14T21:50:54.726Z" agent="5.0 (Windows NT 10.0; WOW64) AppleWebKit/537.36 (KHTML, like Gecko) Chrome/103.0.5060.134 Safari/537.36 OPR/89.0.4447.83 (Edition Yx)" etag="LWGzpVkNUWqJ6qCQ36Cs" version="20.2.3" type="github">
  <diagram id="yz8uFTn369CeaQx-U4Oo" name="Страница 1">
    <mxGraphModel dx="868" dy="493" grid="1" gridSize="10" guides="1" tooltips="1" connect="1" arrows="1" fold="1" page="1" pageScale="1" pageWidth="827" pageHeight="1169" background="none" math="0" shadow="0">
      <root>
        <mxCell id="0" />
        <mxCell id="1" parent="0" />
        <mxCell id="iGjr5SG4mLfQ5k3Jn4Mq-11" style="edgeStyle=orthogonalEdgeStyle;rounded=0;orthogonalLoop=1;jettySize=auto;html=1;exitX=0.5;exitY=1;exitDx=0;exitDy=0;entryX=0.5;entryY=0;entryDx=0;entryDy=0;fontSize=24;" edge="1" parent="1" source="iGjr5SG4mLfQ5k3Jn4Mq-1" target="iGjr5SG4mLfQ5k3Jn4Mq-2">
          <mxGeometry relative="1" as="geometry" />
        </mxCell>
        <mxCell id="iGjr5SG4mLfQ5k3Jn4Mq-1" value="&lt;font style=&quot;font-size: 24px;&quot;&gt;Старт&lt;/font&gt;" style="ellipse;whiteSpace=wrap;html=1;" vertex="1" parent="1">
          <mxGeometry x="260" y="99" width="190" height="100" as="geometry" />
        </mxCell>
        <mxCell id="iGjr5SG4mLfQ5k3Jn4Mq-12" style="edgeStyle=orthogonalEdgeStyle;rounded=0;orthogonalLoop=1;jettySize=auto;html=1;exitX=0.5;exitY=1;exitDx=0;exitDy=0;entryX=0.5;entryY=0;entryDx=0;entryDy=0;fontSize=24;" edge="1" parent="1" source="iGjr5SG4mLfQ5k3Jn4Mq-2" target="iGjr5SG4mLfQ5k3Jn4Mq-3">
          <mxGeometry relative="1" as="geometry" />
        </mxCell>
        <mxCell id="iGjr5SG4mLfQ5k3Jn4Mq-2" value="N" style="shape=parallelogram;perimeter=parallelogramPerimeter;whiteSpace=wrap;html=1;fixedSize=1;fontSize=24;" vertex="1" parent="1">
          <mxGeometry x="260" y="229" width="190" height="70" as="geometry" />
        </mxCell>
        <mxCell id="iGjr5SG4mLfQ5k3Jn4Mq-13" style="edgeStyle=orthogonalEdgeStyle;rounded=0;orthogonalLoop=1;jettySize=auto;html=1;exitX=0.5;exitY=1;exitDx=0;exitDy=0;entryX=0.5;entryY=0;entryDx=0;entryDy=0;fontSize=24;" edge="1" parent="1" source="iGjr5SG4mLfQ5k3Jn4Mq-3" target="iGjr5SG4mLfQ5k3Jn4Mq-5">
          <mxGeometry relative="1" as="geometry" />
        </mxCell>
        <mxCell id="iGjr5SG4mLfQ5k3Jn4Mq-3" value="x=1" style="rounded=0;whiteSpace=wrap;html=1;fontSize=24;" vertex="1" parent="1">
          <mxGeometry x="260" y="329" width="190" height="70" as="geometry" />
        </mxCell>
        <mxCell id="iGjr5SG4mLfQ5k3Jn4Mq-14" style="edgeStyle=orthogonalEdgeStyle;rounded=0;orthogonalLoop=1;jettySize=auto;html=1;exitX=0.5;exitY=1;exitDx=0;exitDy=0;entryX=0.5;entryY=0;entryDx=0;entryDy=0;fontSize=24;" edge="1" parent="1" source="iGjr5SG4mLfQ5k3Jn4Mq-5" target="iGjr5SG4mLfQ5k3Jn4Mq-6">
          <mxGeometry relative="1" as="geometry" />
        </mxCell>
        <mxCell id="iGjr5SG4mLfQ5k3Jn4Mq-5" value="y=1" style="rounded=0;whiteSpace=wrap;html=1;fontSize=24;" vertex="1" parent="1">
          <mxGeometry x="260" y="429" width="190" height="70" as="geometry" />
        </mxCell>
        <mxCell id="iGjr5SG4mLfQ5k3Jn4Mq-15" value="Да" style="edgeStyle=orthogonalEdgeStyle;rounded=0;orthogonalLoop=1;jettySize=auto;html=1;exitX=0.5;exitY=1;exitDx=0;exitDy=0;entryX=0.5;entryY=0;entryDx=0;entryDy=0;fontSize=24;" edge="1" parent="1" source="iGjr5SG4mLfQ5k3Jn4Mq-6" target="iGjr5SG4mLfQ5k3Jn4Mq-7">
          <mxGeometry relative="1" as="geometry" />
        </mxCell>
        <mxCell id="iGjr5SG4mLfQ5k3Jn4Mq-18" style="edgeStyle=orthogonalEdgeStyle;rounded=0;orthogonalLoop=1;jettySize=auto;html=1;exitX=1;exitY=0.5;exitDx=0;exitDy=0;fontSize=24;entryX=1;entryY=0.5;entryDx=0;entryDy=0;" edge="1" parent="1" source="iGjr5SG4mLfQ5k3Jn4Mq-6" target="iGjr5SG4mLfQ5k3Jn4Mq-10">
          <mxGeometry relative="1" as="geometry">
            <mxPoint x="600" y="1009" as="targetPoint" />
            <Array as="points">
              <mxPoint x="600" y="604" />
              <mxPoint x="600" y="994" />
            </Array>
          </mxGeometry>
        </mxCell>
        <mxCell id="iGjr5SG4mLfQ5k3Jn4Mq-19" value="Нет" style="edgeLabel;html=1;align=center;verticalAlign=middle;resizable=0;points=[];fontSize=24;" vertex="1" connectable="0" parent="iGjr5SG4mLfQ5k3Jn4Mq-18">
          <mxGeometry x="-0.7959" y="-4" relative="1" as="geometry">
            <mxPoint as="offset" />
          </mxGeometry>
        </mxCell>
        <mxCell id="iGjr5SG4mLfQ5k3Jn4Mq-6" value="y &amp;lt;= N" style="rhombus;whiteSpace=wrap;html=1;fontSize=24;" vertex="1" parent="1">
          <mxGeometry x="285" y="529" width="140" height="150" as="geometry" />
        </mxCell>
        <mxCell id="iGjr5SG4mLfQ5k3Jn4Mq-16" style="edgeStyle=orthogonalEdgeStyle;rounded=0;orthogonalLoop=1;jettySize=auto;html=1;exitX=0.5;exitY=1;exitDx=0;exitDy=0;entryX=0.5;entryY=0;entryDx=0;entryDy=0;fontSize=24;" edge="1" parent="1" source="iGjr5SG4mLfQ5k3Jn4Mq-7" target="iGjr5SG4mLfQ5k3Jn4Mq-8">
          <mxGeometry relative="1" as="geometry" />
        </mxCell>
        <mxCell id="iGjr5SG4mLfQ5k3Jn4Mq-7" value="x=x*y" style="rounded=0;whiteSpace=wrap;html=1;fontSize=24;" vertex="1" parent="1">
          <mxGeometry x="260" y="719" width="190" height="70" as="geometry" />
        </mxCell>
        <mxCell id="iGjr5SG4mLfQ5k3Jn4Mq-21" style="edgeStyle=orthogonalEdgeStyle;rounded=0;orthogonalLoop=1;jettySize=auto;html=1;exitX=0;exitY=0.5;exitDx=0;exitDy=0;entryX=0;entryY=0.5;entryDx=0;entryDy=0;fontSize=24;" edge="1" parent="1" source="iGjr5SG4mLfQ5k3Jn4Mq-8" target="iGjr5SG4mLfQ5k3Jn4Mq-6">
          <mxGeometry relative="1" as="geometry" />
        </mxCell>
        <mxCell id="iGjr5SG4mLfQ5k3Jn4Mq-8" value="y=y+1" style="rounded=0;whiteSpace=wrap;html=1;fontSize=24;" vertex="1" parent="1">
          <mxGeometry x="260" y="829" width="190" height="70" as="geometry" />
        </mxCell>
        <mxCell id="iGjr5SG4mLfQ5k3Jn4Mq-23" style="edgeStyle=orthogonalEdgeStyle;rounded=0;orthogonalLoop=1;jettySize=auto;html=1;exitX=0.5;exitY=1;exitDx=0;exitDy=0;entryX=0.5;entryY=0;entryDx=0;entryDy=0;fontSize=24;" edge="1" parent="1" source="iGjr5SG4mLfQ5k3Jn4Mq-10" target="iGjr5SG4mLfQ5k3Jn4Mq-22">
          <mxGeometry relative="1" as="geometry" />
        </mxCell>
        <mxCell id="iGjr5SG4mLfQ5k3Jn4Mq-10" value="x" style="shape=parallelogram;perimeter=parallelogramPerimeter;whiteSpace=wrap;html=1;fixedSize=1;fontSize=24;" vertex="1" parent="1">
          <mxGeometry x="260" y="959" width="190" height="70" as="geometry" />
        </mxCell>
        <mxCell id="iGjr5SG4mLfQ5k3Jn4Mq-22" value="&lt;font style=&quot;font-size: 24px;&quot;&gt;Конец&lt;/font&gt;" style="ellipse;whiteSpace=wrap;html=1;" vertex="1" parent="1">
          <mxGeometry x="260" y="1069" width="190" height="100" as="geometry" />
        </mxCell>
        <mxCell id="iGjr5SG4mLfQ5k3Jn4Mq-24" value="Условия" style="swimlane;fontStyle=0;childLayout=stackLayout;horizontal=1;startSize=30;horizontalStack=0;resizeParent=1;resizeParentMax=0;resizeLast=0;collapsible=1;marginBottom=0;fontSize=24;" vertex="1" parent="1">
          <mxGeometry x="550" y="79" width="260" height="120" as="geometry" />
        </mxCell>
        <mxCell id="iGjr5SG4mLfQ5k3Jn4Mq-25" value="N любое число" style="text;strokeColor=none;fillColor=none;align=left;verticalAlign=middle;spacingLeft=4;spacingRight=4;overflow=hidden;points=[[0,0.5],[1,0.5]];portConstraint=eastwest;rotatable=0;fontSize=24;" vertex="1" parent="iGjr5SG4mLfQ5k3Jn4Mq-24">
          <mxGeometry y="30" width="260" height="30" as="geometry" />
        </mxCell>
        <mxCell id="iGjr5SG4mLfQ5k3Jn4Mq-26" value="x первая переменная" style="text;strokeColor=none;fillColor=none;align=left;verticalAlign=middle;spacingLeft=4;spacingRight=4;overflow=hidden;points=[[0,0.5],[1,0.5]];portConstraint=eastwest;rotatable=0;fontSize=24;" vertex="1" parent="iGjr5SG4mLfQ5k3Jn4Mq-24">
          <mxGeometry y="60" width="260" height="30" as="geometry" />
        </mxCell>
        <mxCell id="iGjr5SG4mLfQ5k3Jn4Mq-27" value="y вторая переменная" style="text;strokeColor=none;fillColor=none;align=left;verticalAlign=middle;spacingLeft=4;spacingRight=4;overflow=hidden;points=[[0,0.5],[1,0.5]];portConstraint=eastwest;rotatable=0;fontSize=24;" vertex="1" parent="iGjr5SG4mLfQ5k3Jn4Mq-24">
          <mxGeometry y="90" width="260" height="30" as="geometry" />
        </mxCell>
        <mxCell id="iGjr5SG4mLfQ5k3Jn4Mq-28" value="&lt;b&gt;Задача 6.&lt;br&gt;Составить блок-схему нахождения факториала N.&lt;/b&gt;" style="text;html=1;strokeColor=none;fillColor=none;align=center;verticalAlign=middle;whiteSpace=wrap;rounded=0;fontSize=24;" vertex="1" parent="1">
          <mxGeometry x="30" y="10" width="770" height="50" as="geometry" />
        </mxCell>
        <mxCell id="iGjr5SG4mLfQ5k3Jn4Mq-29" value="&lt;font style=&quot;font-size: 16px;&quot;&gt;Ввод числа&lt;/font&gt;" style="text;html=1;strokeColor=none;fillColor=none;align=center;verticalAlign=middle;whiteSpace=wrap;rounded=0;fontSize=24;" vertex="1" parent="1">
          <mxGeometry x="80" y="229" width="60" height="30" as="geometry" />
        </mxCell>
        <mxCell id="iGjr5SG4mLfQ5k3Jn4Mq-30" value="&lt;font style=&quot;font-size: 16px;&quot;&gt;Переменная для вычисления факториала&lt;/font&gt;" style="text;html=1;strokeColor=none;fillColor=none;align=center;verticalAlign=middle;whiteSpace=wrap;rounded=0;fontSize=24;" vertex="1" parent="1">
          <mxGeometry x="40" y="329" width="140" height="30" as="geometry" />
        </mxCell>
        <mxCell id="iGjr5SG4mLfQ5k3Jn4Mq-31" value="&lt;font style=&quot;font-size: 16px;&quot;&gt;Переменная для подсчета кругов алгоритмов&lt;/font&gt;" style="text;html=1;strokeColor=none;fillColor=none;align=center;verticalAlign=middle;whiteSpace=wrap;rounded=0;fontSize=24;" vertex="1" parent="1">
          <mxGeometry x="40" y="449" width="140" height="30" as="geometry" />
        </mxCell>
        <mxCell id="iGjr5SG4mLfQ5k3Jn4Mq-35" value="&lt;font style=&quot;font-size: 16px;&quot;&gt;Условие завершения подсчета&lt;/font&gt;" style="text;html=1;strokeColor=none;fillColor=none;align=center;verticalAlign=middle;whiteSpace=wrap;rounded=0;fontSize=24;" vertex="1" parent="1">
          <mxGeometry x="40" y="589" width="160" height="30" as="geometry" />
        </mxCell>
        <mxCell id="iGjr5SG4mLfQ5k3Jn4Mq-36" value="&lt;font style=&quot;font-size: 16px;&quot;&gt;Формула подсчета факториала&lt;/font&gt;" style="text;html=1;strokeColor=none;fillColor=none;align=center;verticalAlign=middle;whiteSpace=wrap;rounded=0;fontSize=24;" vertex="1" parent="1">
          <mxGeometry x="35" y="719" width="150" height="30" as="geometry" />
        </mxCell>
        <mxCell id="iGjr5SG4mLfQ5k3Jn4Mq-37" value="&lt;font style=&quot;font-size: 16px;&quot;&gt;Подсчет кругов алгоритма&lt;/font&gt;" style="text;html=1;strokeColor=none;fillColor=none;align=center;verticalAlign=middle;whiteSpace=wrap;rounded=0;fontSize=24;" vertex="1" parent="1">
          <mxGeometry x="40" y="829" width="140" height="30" as="geometry" />
        </mxCell>
        <mxCell id="iGjr5SG4mLfQ5k3Jn4Mq-41" value="Вывод факториала числа N" style="text;html=1;strokeColor=none;fillColor=none;align=center;verticalAlign=middle;whiteSpace=wrap;rounded=0;fontSize=16;" vertex="1" parent="1">
          <mxGeometry x="35" y="979" width="160" height="30" as="geometry" />
        </mxCell>
      </root>
    </mxGraphModel>
  </diagram>
</mxfile>
